<svg width="20" height="20" viewBox="0 0 20 20" fill="none" xmlns="http://www.w3.org/2000/svg">
<path d="M12.5013 18.9582H7.5013C2.9763 18.9582 1.04297 17.0248 1.04297 12.4998V7.49984C1.04297 2.97484 2.9763 1.0415 7.5013 1.0415H12.5013C17.0263 1.0415 18.9596 2.97484 18.9596 7.49984V12.4998C18.9596 17.0248 17.0263 18.9582 12.5013 18.9582ZM7.5013 2.2915C3.65964 2.2915 2.29297 3.65817 2.29297 7.49984V12.4998C2.29297 16.3415 3.65964 17.7082 7.5013 17.7082H12.5013C16.343 17.7082 17.7096 16.3415 17.7096 12.4998V7.49984C17.7096 3.65817 16.343 2.2915 12.5013 2.2915H7.5013Z" fill="#212D31"/>
<path d="M7.4987 8.95833C6.23203 8.95833 5.20703 7.93333 5.20703 6.66667C5.20703 5.4 6.23203 4.375 7.4987 4.375C8.76536 4.375 9.79036 5.4 9.79036 6.66667C9.79036 7.93333 8.76536 8.95833 7.4987 8.95833ZM7.4987 5.625C6.9237 5.625 6.45703 6.09167 6.45703 6.66667C6.45703 7.24167 6.9237 7.70833 7.4987 7.70833C8.0737 7.70833 8.54036 7.24167 8.54036 6.66667C8.54036 6.09167 8.0737 5.625 7.4987 5.625Z" fill="#212D31"/>
<path d="M2.224 16.4168C2.024 16.4168 1.824 16.3168 1.70733 16.1418C1.51566 15.8585 1.59066 15.4668 1.88233 15.2751L5.99066 12.5168C6.89066 11.9085 8.13233 11.9835 8.949 12.6751L9.224 12.9168C9.64066 13.2751 10.349 13.2751 10.7573 12.9168L14.224 9.9418C15.1073 9.18346 16.499 9.18346 17.3907 9.9418L18.749 11.1085C19.0073 11.3335 19.0407 11.7251 18.8157 11.9918C18.5907 12.2501 18.199 12.2835 17.9323 12.0585L16.574 10.8918C16.1573 10.5335 15.449 10.5335 15.0323 10.8918L11.5657 13.8668C10.6823 14.6251 9.29066 14.6251 8.399 13.8668L8.124 13.6251C7.74066 13.3001 7.10733 13.2668 6.68233 13.5585L2.574 16.3168C2.46566 16.3835 2.34066 16.4168 2.224 16.4168Z" fill="#212D31"/>
</svg>
