<svg width="20" height="20" viewBox="0 0 20 20" fill="none" xmlns="http://www.w3.org/2000/svg">
<path d="M5 7.50016C4.65833 7.50016 4.375 7.21683 4.375 6.87516V5.2085C4.375 4.86683 4.65833 4.5835 5 4.5835C5.34167 4.5835 5.625 4.86683 5.625 5.2085V6.87516C5.625 7.21683 5.34167 7.50016 5 7.50016Z" fill="#F0F1FB"/>
<path d="M8.33594 7.50016C7.99427 7.50016 7.71094 7.21683 7.71094 6.87516V5.2085C7.71094 4.86683 7.99427 4.5835 8.33594 4.5835C8.6776 4.5835 8.96094 4.86683 8.96094 5.2085V6.87516C8.96094 7.21683 8.6776 7.50016 8.33594 7.50016Z" fill="#F0F1FB"/>
<path d="M12.4974 18.9582H7.4974C2.9724 18.9582 1.03906 17.0248 1.03906 12.4998V7.49984C1.03906 2.97484 2.9724 1.0415 7.4974 1.0415H12.4974C17.0224 1.0415 18.9557 2.97484 18.9557 7.49984V12.4998C18.9557 17.0248 17.0224 18.9582 12.4974 18.9582ZM7.4974 2.2915C3.65573 2.2915 2.28906 3.65817 2.28906 7.49984V12.4998C2.28906 16.3415 3.65573 17.7082 7.4974 17.7082H12.4974C16.3391 17.7082 17.7057 16.3415 17.7057 12.4998V7.49984C17.7057 3.65817 16.3391 2.2915 12.4974 2.2915H7.4974Z" fill="#F0F1FB"/>
<path d="M5 15.6252C4.65833 15.6252 4.375 15.3418 4.375 15.0002V13.3335C4.375 12.9918 4.65833 12.7085 5 12.7085C5.34167 12.7085 5.625 12.9918 5.625 13.3335V15.0002C5.625 15.3418 5.34167 15.6252 5 15.6252Z" fill="#F0F1FB"/>
<path d="M8.33594 15.6252C7.99427 15.6252 7.71094 15.3418 7.71094 15.0002V13.3335C7.71094 12.9918 7.99427 12.7085 8.33594 12.7085C8.6776 12.7085 8.96094 12.9918 8.96094 13.3335V15.0002C8.96094 15.3418 8.6776 15.6252 8.33594 15.6252Z" fill="#F0F1FB"/>
<path d="M14.9974 6.6665H11.6641C11.3224 6.6665 11.0391 6.38317 11.0391 6.0415C11.0391 5.69984 11.3224 5.4165 11.6641 5.4165H14.9974C15.3391 5.4165 15.6224 5.69984 15.6224 6.0415C15.6224 6.38317 15.3391 6.6665 14.9974 6.6665Z" fill="#F0F1FB"/>
<path d="M14.9974 14.7915H11.6641C11.3224 14.7915 11.0391 14.5082 11.0391 14.1665C11.0391 13.8248 11.3224 13.5415 11.6641 13.5415H14.9974C15.3391 13.5415 15.6224 13.8248 15.6224 14.1665C15.6224 14.5082 15.3391 14.7915 14.9974 14.7915Z" fill="#F0F1FB"/>
<path d="M18.3307 10.625H1.66406C1.3224 10.625 1.03906 10.3417 1.03906 10C1.03906 9.65833 1.3224 9.375 1.66406 9.375H18.3307C18.6724 9.375 18.9557 9.65833 18.9557 10C18.9557 10.3417 18.6724 10.625 18.3307 10.625Z" fill="#F0F1FB"/>
</svg>
