<svg width="20" height="20" viewBox="0 0 20 20" fill="none" xmlns="http://www.w3.org/2000/svg">
<path d="M10.0013 19.0082C9.4263 19.0082 8.88463 18.7165 8.5013 18.2082L7.2513 16.5415C7.2263 16.5082 7.1263 16.4665 7.08464 16.4582H6.66797C3.19297 16.4582 1.04297 15.5165 1.04297 10.8332V6.6665C1.04297 2.98317 2.98464 1.0415 6.66797 1.0415H13.3346C17.018 1.0415 18.9596 2.98317 18.9596 6.6665V10.8332C18.9596 14.5165 17.018 16.4582 13.3346 16.4582H12.918C12.8513 16.4582 12.793 16.4915 12.7513 16.5415L11.5013 18.2082C11.118 18.7165 10.5763 19.0082 10.0013 19.0082ZM6.66797 2.2915C3.68464 2.2915 2.29297 3.68317 2.29297 6.6665V10.8332C2.29297 14.5998 3.58464 15.2082 6.66797 15.2082H7.08464C7.50964 15.2082 7.99297 15.4498 8.2513 15.7915L9.5013 17.4582C9.79297 17.8415 10.2096 17.8415 10.5013 17.4582L11.7513 15.7915C12.0263 15.4248 12.4596 15.2082 12.918 15.2082H13.3346C16.318 15.2082 17.7096 13.8165 17.7096 10.8332V6.6665C17.7096 3.68317 16.318 2.2915 13.3346 2.2915H6.66797Z" fill="#212D31"/>
<path d="M14.1654 7.2915H5.83203C5.49036 7.2915 5.20703 7.00817 5.20703 6.6665C5.20703 6.32484 5.49036 6.0415 5.83203 6.0415H14.1654C14.507 6.0415 14.7904 6.32484 14.7904 6.6665C14.7904 7.00817 14.507 7.2915 14.1654 7.2915Z" fill="#212D31"/>
<path d="M10.832 11.4585H5.83203C5.49036 11.4585 5.20703 11.1752 5.20703 10.8335C5.20703 10.4918 5.49036 10.2085 5.83203 10.2085H10.832C11.1737 10.2085 11.457 10.4918 11.457 10.8335C11.457 11.1752 11.1737 11.4585 10.832 11.4585Z" fill="#212D31"/>
</svg>
