<svg width="20" height="20" viewBox="0 0 20 20" fill="none" xmlns="http://www.w3.org/2000/svg">
<path d="M9.9974 19.0082C9.4224 19.0082 8.88073 18.7165 8.4974 18.2082L7.2474 16.5415C7.2224 16.5082 7.1224 16.4665 7.08073 16.4582H6.66406C3.18906 16.4582 1.03906 15.5165 1.03906 10.8332V6.6665C1.03906 2.98317 2.98073 1.0415 6.66406 1.0415H13.3307C17.0141 1.0415 18.9557 2.98317 18.9557 6.6665V10.8332C18.9557 14.5165 17.0141 16.4582 13.3307 16.4582H12.9141C12.8474 16.4582 12.7891 16.4915 12.7474 16.5415L11.4974 18.2082C11.1141 18.7165 10.5724 19.0082 9.9974 19.0082ZM6.66406 2.2915C3.68073 2.2915 2.28906 3.68317 2.28906 6.6665V10.8332C2.28906 14.5998 3.58073 15.2082 6.66406 15.2082H7.08073C7.50573 15.2082 7.98906 15.4498 8.2474 15.7915L9.4974 17.4582C9.78906 17.8415 10.2057 17.8415 10.4974 17.4582L11.7474 15.7915C12.0224 15.4248 12.4557 15.2082 12.9141 15.2082H13.3307C16.3141 15.2082 17.7057 13.8165 17.7057 10.8332V6.6665C17.7057 3.68317 16.3141 2.2915 13.3307 2.2915H6.66406Z" fill="#F0F1FB"/>
<path d="M14.1693 7.2915H5.83594C5.49427 7.2915 5.21094 7.00817 5.21094 6.6665C5.21094 6.32484 5.49427 6.0415 5.83594 6.0415H14.1693C14.5109 6.0415 14.7943 6.32484 14.7943 6.6665C14.7943 7.00817 14.5109 7.2915 14.1693 7.2915Z" fill="#F0F1FB"/>
<path d="M10.8359 11.4585H5.83594C5.49427 11.4585 5.21094 11.1752 5.21094 10.8335C5.21094 10.4918 5.49427 10.2085 5.83594 10.2085H10.8359C11.1776 10.2085 11.4609 10.4918 11.4609 10.8335C11.4609 11.1752 11.1776 11.4585 10.8359 11.4585Z" fill="#F0F1FB"/>
</svg>
