<svg width="20" height="20" viewBox="0 0 20 20" fill="none" xmlns="http://www.w3.org/2000/svg">
<path d="M12.9141 18.9582H7.08073C3.98906 18.9582 2.28906 17.2582 2.28906 14.1665V5.83317C2.28906 2.7415 3.98906 1.0415 7.08073 1.0415H12.9141C15.9557 1.0415 17.7057 2.7915 17.7057 5.83317V6.6665C17.7057 7.4665 17.0474 8.12484 16.2474 8.12484C16.1307 8.12484 16.0391 8.2165 16.0391 8.33317V10.1415C16.0391 10.4165 16.1474 10.6832 16.3474 10.8748L17.0391 11.5665C17.4724 11.9998 17.7141 12.5748 17.7141 13.1832V14.1665C17.7057 17.2082 15.9557 18.9582 12.9141 18.9582ZM7.08073 2.2915C4.6974 2.2915 3.53906 3.44984 3.53906 5.83317V14.1665C3.53906 16.5498 4.6974 17.7082 7.08073 17.7082H12.9141C15.2641 17.7082 16.4557 16.5165 16.4557 14.1665V13.1915C16.4557 12.9165 16.3474 12.6498 16.1474 12.4582L15.4557 11.7665C15.0224 11.3332 14.7807 10.7582 14.7807 10.1498V8.33317C14.7807 7.53317 15.4391 6.87484 16.2391 6.87484C16.3557 6.87484 16.4474 6.78317 16.4474 6.6665V5.83317C16.4474 3.48317 15.2557 2.2915 12.9057 2.2915H7.08073Z" fill="#F0F1FB"/>
<path d="M13.3401 18.9332C12.9984 18.9332 12.7151 18.6582 12.7151 18.3165L12.6901 15.8249C12.6901 15.2499 12.2151 14.7915 11.6484 14.7915H8.3151C8.0401 14.7915 7.77344 14.8999 7.57344 15.0999C7.38177 15.2915 7.27344 15.5582 7.27344 15.8332L7.28177 18.3082C7.28177 18.6499 7.00677 18.9332 6.65677 18.9332C6.3151 18.9332 6.03177 18.6582 6.03177 18.3082L6.02344 15.8332C6.02344 15.2165 6.25677 14.6415 6.6901 14.2082C7.12344 13.7749 7.69844 13.5332 8.3151 13.5332H11.6568C12.9151 13.5332 13.9401 14.5582 13.9484 15.8082L13.9734 18.2915C13.9734 18.6499 13.6901 18.9332 13.3401 18.9332C13.3484 18.9332 13.3401 18.9332 13.3401 18.9332Z" fill="#F0F1FB"/>
<path d="M7.45331 4.75016H7.44498C7.09498 4.74183 6.81998 4.4585 6.82831 4.1085L6.86998 1.70016C6.87831 1.3585 7.15331 1.0835 7.49498 1.0835H7.50331C7.84498 1.09183 8.11998 1.37516 8.11998 1.71683L8.07831 4.1335C8.06998 4.47516 7.79498 4.75016 7.45331 4.75016Z" fill="#F0F1FB"/>
<path d="M9.95312 4.75013H9.94479C9.60313 4.7418 9.32812 4.45846 9.32812 4.1168L9.36979 1.70846C9.37813 1.3668 9.65313 1.0918 9.99479 1.0918H10.0031C10.3448 1.10013 10.6198 1.38346 10.6198 1.72513L10.5781 4.13346C10.5698 4.47513 10.2948 4.75013 9.95312 4.75013Z" fill="#F0F1FB"/>
<path d="M12.4531 4.72523H12.4448C12.1031 4.71689 11.8281 4.43356 11.8281 4.09189L11.8698 1.68356C11.8781 1.34189 12.1531 1.06689 12.4948 1.06689H12.5031C12.8448 1.07523 13.1198 1.35856 13.1198 1.70023L13.0781 4.10856C13.0698 4.45023 12.7948 4.72523 12.4531 4.72523Z" fill="#F0F1FB"/>
</svg>
