<svg width="20" height="20" viewBox="0 0 20 20" fill="none" xmlns="http://www.w3.org/2000/svg">
<path d="M5 7.50016C4.65833 7.50016 4.375 7.21683 4.375 6.87516V5.2085C4.375 4.86683 4.65833 4.5835 5 4.5835C5.34167 4.5835 5.625 4.86683 5.625 5.2085V6.87516C5.625 7.21683 5.34167 7.50016 5 7.50016Z" fill="#292D32"/>
<path d="M8.33203 7.50016C7.99036 7.50016 7.70703 7.21683 7.70703 6.87516V5.2085C7.70703 4.86683 7.99036 4.5835 8.33203 4.5835C8.6737 4.5835 8.95703 4.86683 8.95703 5.2085V6.87516C8.95703 7.21683 8.6737 7.50016 8.33203 7.50016Z" fill="#292D32"/>
<path d="M12.5013 18.9582H7.5013C2.9763 18.9582 1.04297 17.0248 1.04297 12.4998V7.49984C1.04297 2.97484 2.9763 1.0415 7.5013 1.0415H12.5013C17.0263 1.0415 18.9596 2.97484 18.9596 7.49984V12.4998C18.9596 17.0248 17.0263 18.9582 12.5013 18.9582ZM7.5013 2.2915C3.65964 2.2915 2.29297 3.65817 2.29297 7.49984V12.4998C2.29297 16.3415 3.65964 17.7082 7.5013 17.7082H12.5013C16.343 17.7082 17.7096 16.3415 17.7096 12.4998V7.49984C17.7096 3.65817 16.343 2.2915 12.5013 2.2915H7.5013Z" fill="#292D32"/>
<path d="M5 15.6252C4.65833 15.6252 4.375 15.3418 4.375 15.0002V13.3335C4.375 12.9918 4.65833 12.7085 5 12.7085C5.34167 12.7085 5.625 12.9918 5.625 13.3335V15.0002C5.625 15.3418 5.34167 15.6252 5 15.6252Z" fill="#292D32"/>
<path d="M8.33203 15.6252C7.99036 15.6252 7.70703 15.3418 7.70703 15.0002V13.3335C7.70703 12.9918 7.99036 12.7085 8.33203 12.7085C8.6737 12.7085 8.95703 12.9918 8.95703 13.3335V15.0002C8.95703 15.3418 8.6737 15.6252 8.33203 15.6252Z" fill="#292D32"/>
<path d="M15.0013 6.6665H11.668C11.3263 6.6665 11.043 6.38317 11.043 6.0415C11.043 5.69984 11.3263 5.4165 11.668 5.4165H15.0013C15.343 5.4165 15.6263 5.69984 15.6263 6.0415C15.6263 6.38317 15.343 6.6665 15.0013 6.6665Z" fill="#292D32"/>
<path d="M15.0013 14.7915H11.668C11.3263 14.7915 11.043 14.5082 11.043 14.1665C11.043 13.8248 11.3263 13.5415 11.668 13.5415H15.0013C15.343 13.5415 15.6263 13.8248 15.6263 14.1665C15.6263 14.5082 15.343 14.7915 15.0013 14.7915Z" fill="#292D32"/>
<path d="M18.3346 10.625H1.66797C1.3263 10.625 1.04297 10.3417 1.04297 10C1.04297 9.65833 1.3263 9.375 1.66797 9.375H18.3346C18.6763 9.375 18.9596 9.65833 18.9596 10C18.9596 10.3417 18.6763 10.625 18.3346 10.625Z" fill="#292D32"/>
</svg>
