<svg width="20" height="20" viewBox="0 0 20 20" fill="none" xmlns="http://www.w3.org/2000/svg">
<path d="M9.9974 13.5415C7.81406 13.5415 6.03906 11.7665 6.03906 9.58317V4.99984C6.03906 2.8165 7.81406 1.0415 9.9974 1.0415C12.1807 1.0415 13.9557 2.8165 13.9557 4.99984V9.58317C13.9557 11.7665 12.1807 13.5415 9.9974 13.5415ZM9.9974 2.2915C8.50573 2.2915 7.28906 3.50817 7.28906 4.99984V9.58317C7.28906 11.0748 8.50573 12.2915 9.9974 12.2915C11.4891 12.2915 12.7057 11.0748 12.7057 9.58317V4.99984C12.7057 3.50817 11.4891 2.2915 9.9974 2.2915Z" fill="#F0F1FB"/>
<path d="M10 16.4582C6.14167 16.4582 3 13.3165 3 9.45817V8.0415C3 7.69984 3.28333 7.4165 3.625 7.4165C3.96667 7.4165 4.25 7.69984 4.25 8.0415V9.45817C4.25 12.6248 6.83333 15.2082 10 15.2082C13.1667 15.2082 15.75 12.6248 15.75 9.45817V8.0415C15.75 7.69984 16.0333 7.4165 16.375 7.4165C16.7167 7.4165 17 7.69984 17 8.0415V9.45817C17 13.3165 13.8583 16.4582 10 16.4582Z" fill="#F0F1FB"/>
<path d="M11.156 5.98343C11.0893 5.98343 11.0143 5.9751 10.9393 5.9501C10.331 5.7251 9.66429 5.7251 9.05595 5.9501C8.73095 6.06676 8.37262 5.9001 8.25595 5.5751C8.13929 5.2501 8.30595 4.89176 8.63095 4.7751C9.51429 4.45843 10.4893 4.45843 11.3726 4.7751C11.6976 4.89176 11.8643 5.2501 11.7476 5.5751C11.6476 5.8251 11.406 5.98343 11.156 5.98343Z" fill="#F0F1FB"/>
<path d="M10.6671 7.7501C10.6087 7.7501 10.5587 7.74176 10.5004 7.7251C10.1671 7.63343 9.82539 7.63343 9.49206 7.7251C9.15872 7.81676 8.81706 7.61676 8.72539 7.28343C8.63372 6.95843 8.83372 6.61676 9.16706 6.5251C9.70872 6.3751 10.2921 6.3751 10.8337 6.5251C11.1671 6.61676 11.3671 6.95843 11.2754 7.29176C11.2004 7.56676 10.9421 7.7501 10.6671 7.7501Z" fill="#F0F1FB"/>
<path d="M10 18.9585C9.65833 18.9585 9.375 18.6752 9.375 18.3335V15.8335C9.375 15.4918 9.65833 15.2085 10 15.2085C10.3417 15.2085 10.625 15.4918 10.625 15.8335V18.3335C10.625 18.6752 10.3417 18.9585 10 18.9585Z" fill="#F0F1FB"/>
</svg>
