<svg width="20" height="20" viewBox="0 0 20 20" fill="none" xmlns="http://www.w3.org/2000/svg">
<path d="M12.918 18.9582H7.08464C3.99297 18.9582 2.29297 17.2582 2.29297 14.1665V5.83317C2.29297 2.7415 3.99297 1.0415 7.08464 1.0415H12.918C15.9596 1.0415 17.7096 2.7915 17.7096 5.83317V6.6665C17.7096 7.4665 17.0513 8.12484 16.2513 8.12484C16.1346 8.12484 16.043 8.2165 16.043 8.33317V10.1415C16.043 10.4165 16.1513 10.6832 16.3513 10.8748L17.043 11.5665C17.4763 11.9998 17.718 12.5748 17.718 13.1832V14.1665C17.7096 17.2082 15.9596 18.9582 12.918 18.9582ZM7.08464 2.2915C4.7013 2.2915 3.54297 3.44984 3.54297 5.83317V14.1665C3.54297 16.5498 4.7013 17.7082 7.08464 17.7082H12.918C15.268 17.7082 16.4596 16.5165 16.4596 14.1665V13.1915C16.4596 12.9165 16.3513 12.6498 16.1513 12.4582L15.4596 11.7665C15.0263 11.3332 14.7846 10.7582 14.7846 10.1498V8.33317C14.7846 7.53317 15.443 6.87484 16.243 6.87484C16.3596 6.87484 16.4513 6.78317 16.4513 6.6665V5.83317C16.4513 3.48317 15.2596 2.2915 12.9096 2.2915H7.08464Z" fill="#292D32"/>
<path d="M13.3401 18.9332C12.9984 18.9332 12.7151 18.6582 12.7151 18.3165L12.6901 15.8249C12.6901 15.2499 12.2151 14.7915 11.6484 14.7915H8.3151C8.0401 14.7915 7.77344 14.8999 7.57344 15.0999C7.38177 15.2915 7.27344 15.5582 7.27344 15.8332L7.28177 18.3082C7.28177 18.6499 7.00677 18.9332 6.65677 18.9332C6.3151 18.9332 6.03177 18.6582 6.03177 18.3082L6.02344 15.8332C6.02344 15.2165 6.25677 14.6415 6.6901 14.2082C7.12344 13.7749 7.69844 13.5332 8.3151 13.5332H11.6568C12.9151 13.5332 13.9401 14.5582 13.9484 15.8082L13.9734 18.2915C13.9734 18.6499 13.6901 18.9332 13.3401 18.9332C13.3484 18.9332 13.3401 18.9332 13.3401 18.9332Z" fill="#292D32"/>
<path d="M7.4494 4.75016H7.44107C7.09107 4.74183 6.81607 4.4585 6.8244 4.1085L6.86607 1.70016C6.8744 1.3585 7.1494 1.0835 7.49107 1.0835H7.4994C7.84107 1.09183 8.11607 1.37516 8.11607 1.71683L8.0744 4.1335C8.06607 4.47516 7.79107 4.75016 7.4494 4.75016Z" fill="#292D32"/>
<path d="M9.94922 4.75013H9.94089C9.59922 4.7418 9.32422 4.45846 9.32422 4.1168L9.36589 1.70846C9.37422 1.3668 9.64922 1.0918 9.99089 1.0918H9.99922C10.3409 1.10013 10.6159 1.38346 10.6159 1.72513L10.5742 4.13346C10.5659 4.47513 10.2909 4.75013 9.94922 4.75013Z" fill="#292D32"/>
<path d="M12.4492 4.72523H12.4409C12.0992 4.71689 11.8242 4.43356 11.8242 4.09189L11.8659 1.68356C11.8742 1.34189 12.1492 1.06689 12.4909 1.06689H12.4992C12.8409 1.07523 13.1159 1.35856 13.1159 1.70023L13.0742 4.10856C13.0659 4.45023 12.7909 4.72523 12.4492 4.72523Z" fill="#292D32"/>
</svg>
