<svg width="168" height="38" viewBox="0 0 168 38" fill="none" xmlns="http://www.w3.org/2000/svg">
<path d="M35 30L44.57 8.85H47.81L57.5 30H53.57L50.99 24.06L52.55 25.11H39.86L41.48 24.06L38.9 30H35ZM46.16 12.99L41.93 23.01L41.15 22.08H51.23L50.6 23.01L46.28 12.99H46.16ZM59.54 30V14.85H63.29V30H59.54ZM59.33 12V8.34H63.5V12H59.33ZM67.6623 30V8.85H70.5723L82.8423 24.72H82.0623V8.85H85.6623V30H82.7523L70.5123 14.13H71.2623V30H67.6623ZM97.3288 30.3C94.7888 30.3 92.7988 29.6 91.3588 28.2C89.9188 26.8 89.1988 24.88 89.1988 22.44C89.1988 20.86 89.5088 19.48 90.1288 18.3C90.7488 17.12 91.6088 16.2 92.7088 15.54C93.8288 14.88 95.1288 14.55 96.6088 14.55C98.0688 14.55 99.2888 14.86 100.269 15.48C101.249 16.1 101.989 16.97 102.489 18.09C103.009 19.21 103.269 20.52 103.269 22.02V23.01H92.2288V21.03H100.599L100.089 21.45C100.089 20.05 99.7888 18.98 99.1888 18.24C98.6088 17.5 97.7588 17.13 96.6388 17.13C95.3988 17.13 94.4388 17.57 93.7588 18.45C93.0988 19.33 92.7688 20.56 92.7688 22.14V22.53C92.7688 24.17 93.1688 25.4 93.9688 26.22C94.7888 27.02 95.9388 27.42 97.4188 27.42C98.2788 27.42 99.0788 27.31 99.8188 27.09C100.579 26.85 101.299 26.47 101.979 25.95L103.089 28.47C102.369 29.05 101.509 29.5 100.509 29.82C99.5088 30.14 98.4488 30.3 97.3288 30.3ZM113.284 30.3C111.724 30.3 110.374 29.98 109.234 29.34C108.094 28.7 107.204 27.79 106.564 26.61C105.944 25.43 105.634 24.03 105.634 22.41C105.634 20.79 105.944 19.4 106.564 18.24C107.204 17.06 108.094 16.15 109.234 15.51C110.374 14.87 111.724 14.55 113.284 14.55C114.844 14.55 116.194 14.87 117.334 15.51C118.494 16.15 119.384 17.06 120.004 18.24C120.644 19.4 120.964 20.79 120.964 22.41C120.964 24.03 120.644 25.43 120.004 26.61C119.384 27.79 118.494 28.7 117.334 29.34C116.194 29.98 114.844 30.3 113.284 30.3ZM113.284 27.42C114.464 27.42 115.404 27.01 116.104 26.19C116.804 25.35 117.154 24.09 117.154 22.41C117.154 20.73 116.804 19.48 116.104 18.66C115.404 17.84 114.464 17.43 113.284 17.43C112.104 17.43 111.164 17.84 110.464 18.66C109.764 19.48 109.414 20.73 109.414 22.41C109.414 24.09 109.764 25.35 110.464 26.19C111.164 27.01 112.104 27.42 113.284 27.42ZM124.198 30V18.63C124.198 18.01 124.178 17.38 124.138 16.74C124.098 16.1 124.038 15.47 123.958 14.85H127.588L127.888 17.85H127.528C127.948 16.81 128.588 16 129.448 15.42C130.328 14.84 131.368 14.55 132.568 14.55C133.768 14.55 134.758 14.84 135.538 15.42C136.338 15.98 136.898 16.86 137.218 18.06H136.738C137.158 16.98 137.848 16.13 138.808 15.51C139.768 14.87 140.868 14.55 142.108 14.55C143.808 14.55 145.078 15.05 145.918 16.05C146.758 17.05 147.178 18.61 147.178 20.73V30H143.428V20.88C143.428 19.68 143.228 18.82 142.828 18.3C142.428 17.76 141.788 17.49 140.908 17.49C139.868 17.49 139.048 17.86 138.448 18.6C137.848 19.32 137.548 20.3 137.548 21.54V30H133.798V20.88C133.798 19.68 133.598 18.82 133.198 18.3C132.798 17.76 132.158 17.49 131.278 17.49C130.238 17.49 129.418 17.86 128.818 18.6C128.238 19.32 127.948 20.3 127.948 21.54V30H124.198ZM157.031 30.3C155.711 30.3 154.551 29.99 153.551 29.37C152.551 28.73 151.771 27.82 151.211 26.64C150.651 25.46 150.371 24.05 150.371 22.41C150.371 20.77 150.651 19.37 151.211 18.21C151.771 17.03 152.551 16.13 153.551 15.51C154.551 14.87 155.711 14.55 157.031 14.55C158.311 14.55 159.431 14.87 160.391 15.51C161.371 16.13 162.021 16.97 162.341 18.03H162.011L162.341 14.85H165.941C165.881 15.47 165.821 16.1 165.761 16.74C165.721 17.38 165.701 18.01 165.701 18.63V30H161.981L161.951 26.88H162.311C161.991 27.92 161.341 28.75 160.361 29.37C159.381 29.99 158.271 30.3 157.031 30.3ZM158.081 27.42C159.261 27.42 160.211 27.01 160.931 26.19C161.651 25.35 162.011 24.09 162.011 22.41C162.011 20.73 161.651 19.48 160.931 18.66C160.211 17.84 159.261 17.43 158.081 17.43C156.901 17.43 155.951 17.84 155.231 18.66C154.511 19.48 154.151 20.73 154.151 22.41C154.151 24.09 154.501 25.35 155.201 26.19C155.921 27.01 156.881 27.42 158.081 27.42Z" fill="#212D31"/>
<path d="M28.0294 16.2763C28.3695 15.2662 28.4871 14.1961 28.3744 13.1375C28.2617 12.0789 27.9213 11.0563 27.3759 10.1378C26.5674 8.74961 25.3328 7.65053 23.8502 6.99903C22.3676 6.34754 20.7136 6.17729 19.1266 6.51284C18.225 5.52354 17.0753 4.78568 15.7931 4.37336C14.5109 3.96104 13.1413 3.88877 11.8218 4.16382C10.5023 4.43886 9.27944 5.05154 8.27598 5.94032C7.27251 6.82909 6.5238 7.96267 6.10502 9.2272C5.04774 9.44106 4.04891 9.87506 3.17528 10.5002C2.30166 11.1253 1.57336 11.9272 1.03907 12.8522C0.221753 14.2381 -0.12756 15.8445 0.041626 17.4391C0.210812 19.0337 0.889731 20.534 1.98023 21.7229C1.63892 22.7326 1.52013 23.8025 1.63181 24.8611C1.74348 25.9197 2.08304 26.9426 2.62778 27.8613C3.43733 29.25 4.67296 30.3493 6.15661 31.0008C7.64026 31.6523 9.29529 31.8223 10.8832 31.4864C11.5995 32.2821 12.4797 32.9179 13.4649 33.3513C14.4502 33.7847 15.5178 34.0059 16.5966 33.9999C18.2232 34.0014 19.8083 33.4929 21.1229 32.548C22.4376 31.6031 23.4138 30.2705 23.9107 28.7426C24.9679 28.5284 25.9666 28.0943 26.8401 27.4691C27.7137 26.844 28.4421 26.0423 28.9767 25.1175C29.7843 23.7337 30.1276 22.1333 29.9575 20.5454C29.7874 18.9574 29.1125 17.4631 28.0294 16.2763ZM16.5966 32.0364C15.2644 32.0385 13.9739 31.5779 12.9516 30.7354L13.1314 30.6349L19.1865 27.1872C19.3372 27.1 19.4623 26.9756 19.5496 26.8263C19.6368 26.677 19.6832 26.5079 19.6842 26.3355V17.9144L22.2439 19.3752C22.2566 19.3815 22.2675 19.3907 22.2759 19.402C22.2843 19.4133 22.2898 19.4264 22.2921 19.4402V26.4184C22.2889 27.9074 21.6878 29.3346 20.6204 30.3875C19.5529 31.4404 18.1061 32.0332 16.5966 32.0364ZM4.35436 26.8797C3.68625 25.7417 3.44636 24.4078 3.67691 23.1125L3.85685 23.219L9.91796 26.6668C10.0679 26.7536 10.2387 26.7993 10.4126 26.7993C10.5864 26.7993 10.7572 26.7536 10.9071 26.6668L18.3113 22.4562V25.3717C18.3106 25.3868 18.3064 25.4015 18.2991 25.4148C18.2918 25.4281 18.2816 25.4397 18.2692 25.4485L12.1361 28.9376C10.8272 29.6814 9.27262 29.8824 7.81363 29.4966C6.35463 29.1107 5.11049 28.1695 4.35436 26.8797ZM2.75969 13.8694C3.43244 12.7242 4.4943 11.8506 5.7573 11.4034V18.4999C5.75502 18.6714 5.79943 18.8403 5.88589 18.989C5.97235 19.1378 6.0977 19.2609 6.24885 19.3455L13.617 23.5384L11.0571 24.999C11.0432 25.0063 11.0278 25.0101 11.0121 25.0101C10.9964 25.0101 10.9809 25.0063 10.9671 24.999L4.84604 21.5159C3.53962 20.7689 2.58653 19.5417 2.19549 18.103C1.80444 16.6643 2.00732 15.1314 2.75969 13.8399V13.8694ZM23.7908 18.6892L16.3988 14.4549L18.9527 12.9999C18.9666 12.9927 18.982 12.9889 18.9977 12.9889C19.0134 12.9889 19.0288 12.9927 19.0427 12.9999L25.1637 16.4891C26.0996 17.0217 26.8626 17.8061 27.3636 18.7504C27.8645 19.6948 28.0828 20.7603 27.9929 21.8224C27.903 22.8846 27.5087 23.8996 26.8559 24.749C26.2032 25.5983 25.3189 26.247 24.3065 26.6193V19.5228C24.3012 19.3516 24.2508 19.1848 24.1604 19.0386C24.07 18.8925 23.9427 18.7721 23.7908 18.6892ZM26.3388 14.9103L26.1589 14.8038L20.1098 11.3266C19.9589 11.2392 19.7871 11.1932 19.6122 11.1932C19.4372 11.1932 19.2654 11.2392 19.1145 11.3266L11.7166 15.5371V12.6217C11.7151 12.6069 11.7176 12.5919 11.7239 12.5784C11.7303 12.5648 11.7402 12.5532 11.7526 12.5448L17.8737 9.06158C18.8118 8.52848 19.8844 8.26988 20.9661 8.31603C22.0478 8.36218 23.0938 8.71117 23.9817 9.32218C24.8697 9.9332 25.5629 10.781 25.9804 11.7664C26.3978 12.7517 26.5222 13.834 26.339 14.8866L26.3388 14.9103ZM10.3195 20.0787L7.75976 18.6239C7.74695 18.6163 7.736 18.606 7.72768 18.5938C7.71936 18.5815 7.71387 18.5676 7.7116 18.5531V11.5927C7.71301 10.5249 8.02256 9.4796 8.60404 8.57895C9.18553 7.67831 10.0149 6.95957 10.9953 6.50676C11.9756 6.05395 13.0664 5.88579 14.14 6.02194C15.2137 6.15808 16.2259 6.59291 17.0582 7.27558L16.8783 7.37621L10.8233 10.8237C10.6726 10.9109 10.5474 11.0352 10.4602 11.1845C10.3729 11.3339 10.3266 11.503 10.3256 11.6753L10.3195 20.0787ZM11.7104 17.1219L15.0077 15.2472L18.3113 17.1219V20.8712L15.0198 22.7458L11.7165 20.8712L11.7104 17.1219Z" fill="#212D31"/>
</svg>
