<svg width="146" height="146" fill="none" xmlns="http://www.w3.org/2000/svg"><g filter="url(#a)"><rect x="40" y="40" width="66" height="66" rx="33" fill="#FF5990" fill-opacity=".8"/></g><path fill-rule="evenodd" clip-rule="evenodd" d="M46.832 47.262c.378-1 .77-2.036 1.324-3.027 1.414-2.346 3.885-3.378 6.084-2.782 1.228.329 2.578 1.508 3.255 2.514l5.67 8.105 3.816 1.035c2.809.762 4.493 3.548 4.09 6.798-.434 3.108-1.849 8.813-3.176 12.003-1.267 3.205-3.99 4.76-6.936 3.96l-3.816-1.035-9.077 4.2c-.938.459-2.486.856-3.723.52-.08-.02-.151-.038-.222-.058-2.24-.608-3.778-2.791-3.847-5.532.005-1.15.174-2.182.337-3.18l.003-.02.157-.996c.451-3.246 4.508-18.579 5.714-21.597l.347-.908zm-7.71 1.833a1.34 1.34 0 0 1 1.926.155c.48.592.403 1.48-.174 1.982-1.604 1.398-2.841 3.504-3.484 5.932-.643 2.426-.613 4.877.085 6.9a1.433 1.433 0 0 1-.83 1.803 1.334 1.334 0 0 1-.816.038 1.365 1.365 0 0 1-.927-.877c-.883-2.554-.936-5.6-.147-8.578.79-2.978 2.34-5.59 4.367-7.355zm-1.586-5.235c-.465-.586-1.302-.645-1.862-.138-3.063 2.754-5.427 6.825-6.654 11.457-1.228 4.634-1.194 9.353.097 13.287.14.43.473.755.89.868.26.07.532.054.79-.046.69-.275 1.057-1.084.821-1.807-1.115-3.405-1.134-7.53-.052-11.613 1.082-4.08 3.137-7.643 5.787-10.028.561-.506.644-1.394.183-1.98z" fill="url(#b)"/><mask id="d" maskUnits="userSpaceOnUse" x="49.211" y="37.464" width="75.923" height="73.505" fill="#000"><path fill="#fff" d="M49.211 37.464h75.923v73.505H49.211z"/><path fill-rule="evenodd" clip-rule="evenodd" d="M90.395 54.978c-.54-1.428-1.101-2.908-1.892-4.323-2.02-3.35-5.548-4.825-8.688-3.972-1.754.468-3.683 2.152-4.649 3.589L67.07 61.846l-5.45 1.48c-4.012 1.088-6.416 5.065-5.841 9.707.62 4.439 2.64 12.586 4.535 17.141 1.81 4.578 5.698 6.799 9.905 5.657l5.45-1.48 12.963 5.999c1.34.654 3.55 1.222 5.317.742.115-.027.216-.055.317-.082 3.2-.869 5.395-3.987 5.493-7.9-.007-1.642-.248-3.118-.48-4.543l-.005-.027-.224-1.422c-.645-4.637-6.438-26.534-8.16-30.843l-.495-1.297zm11.01 2.617a1.914 1.914 0 0 0-2.75.222 2.059 2.059 0 0 0 .247 2.83c2.292 1.997 4.058 5.004 4.977 8.471.918 3.466.875 6.966-.123 9.854-.359 1.037.173 2.19 1.187 2.575.378.14.782.159 1.164.055a1.95 1.95 0 0 0 1.325-1.253c1.26-3.647 1.336-7.997.209-12.25s-3.343-7.983-6.236-10.504zm2.264-7.476c.665-.837 1.86-.92 2.66-.197 4.374 3.934 7.749 9.747 9.502 16.361 1.754 6.62 1.705 13.358-.138 18.976a1.865 1.865 0 0 1-1.272 1.24c-.37.1-.759.077-1.127-.066-.986-.393-1.51-1.547-1.174-2.58 1.593-4.864 1.62-10.754.075-16.584-1.544-5.829-4.48-10.916-8.264-14.322-.802-.723-.92-1.99-.262-2.828z"/></mask><path fill-rule="evenodd" clip-rule="evenodd" d="M90.395 54.978c-.54-1.428-1.101-2.908-1.892-4.323-2.02-3.35-5.548-4.825-8.688-3.972-1.754.468-3.683 2.152-4.649 3.589L67.07 61.846l-5.45 1.48c-4.012 1.088-6.416 5.065-5.841 9.707.62 4.439 2.64 12.586 4.535 17.141 1.81 4.578 5.698 6.799 9.905 5.657l5.45-1.48 12.963 5.999c1.34.654 3.55 1.222 5.317.742.115-.027.216-.055.317-.082 3.2-.869 5.395-3.987 5.493-7.9-.007-1.642-.248-3.118-.48-4.543l-.005-.027-.224-1.422c-.645-4.637-6.438-26.534-8.16-30.843l-.495-1.297zm11.01 2.617a1.914 1.914 0 0 0-2.75.222 2.059 2.059 0 0 0 .247 2.83c2.292 1.997 4.058 5.004 4.977 8.471.918 3.466.875 6.966-.123 9.854-.359 1.037.173 2.19 1.187 2.575.378.14.782.159 1.164.055a1.95 1.95 0 0 0 1.325-1.253c1.26-3.647 1.336-7.997.209-12.25s-3.343-7.983-6.236-10.504zm2.264-7.476c.665-.837 1.86-.92 2.66-.197 4.374 3.934 7.749 9.747 9.502 16.361 1.754 6.62 1.705 13.358-.138 18.976a1.865 1.865 0 0 1-1.272 1.24c-.37.1-.759.077-1.127-.066-.986-.393-1.51-1.547-1.174-2.58 1.593-4.864 1.62-10.754.075-16.584-1.544-5.829-4.48-10.916-8.264-14.322-.802-.723-.92-1.99-.262-2.828z" fill="#FF749F" fill-opacity=".35"/><path d="m88.503 50.655.872-.493-.016-.028-.856.52zm1.892 4.323-.934.359v.003l.934-.362zm-10.58-8.295.253.967h.003l-.256-.967zm-4.649 3.589.817.572a.514.514 0 0 0 .01-.015l-.827-.557zM67.07 61.846l.256.967c.227-.062.425-.201.56-.395l-.816-.572zm-5.45 1.48.256.966-.257-.967zm-5.841 9.707-.991.128a.8.8 0 0 0 .002.015l.989-.143zm4.535 17.141.928-.373-.006-.016-.922.389zm9.905 5.657.257.966-.257-.966zm5.45-1.48.422-.909a.995.995 0 0 0-.678-.057l.257.967zm12.963 5.999.44-.9-.018-.01-.422.91zm5.317.742-.229-.973a.279.279 0 0 0-.027.007l.256.966zm.317-.082-.257-.967.257.967zm5.493-7.9.998.02.001-.03-.999.01zm-.48-4.543-.986.166.985-.166zm-.005-.027-.986.161v.005l.986-.166zm-.224-1.422-.99.142.004.018.986-.16zm-8.16-30.843-.933.362.006.014.927-.376zm7.765 1.542-.768-.636-.005.006.773.63zm2.75-.222-.657.757.657-.757zm-2.503 3.052.657-.758-.657.758zm4.977 8.471.965-.261-.965.261zm-.123 9.854.944.325v-.001l-.944-.324zm1.187 2.575-.357.937.007.002.35-.94zm1.164.055.257.967-.257-.967zm1.325-1.253.943.325.001-.001-.944-.324zm-1.103-30.427-.671.745.002.002.669-.747zm-2.66.197-.78-.621-.003.004.783.617zm12.162 16.164-.965.262.965-.262zm-.138 18.976-.948-.309-.001.001.949.308zm-1.272 1.24-.257-.967.257.967zm-1.127-.066-.372.93.007.003.365-.933zm-1.174-2.58-.948-.31-.001.003.949.306zm.075-16.584-.965.26.965-.26zm-8.264-14.322-.67.746h.001l.669-.746zm-16.3-1.8c.75 1.34 1.286 2.753 1.83 4.19l1.868-.718c-.537-1.418-1.122-2.967-1.954-4.457l-1.743.985zm-7.56-3.498c2.651-.72 5.754.502 7.577 3.527l1.71-1.042c-2.215-3.675-6.17-5.403-9.8-4.418l.513 1.933zm-4.078 3.18c.42-.623 1.07-1.33 1.824-1.934.759-.608 1.555-1.059 2.25-1.245l-.505-1.935c-1.058.283-2.103.909-2.988 1.618-.891.715-1.688 1.569-2.235 2.382l1.654 1.114zm-8.107 11.59 8.097-11.575L74.35 49.7l-8.097 11.575 1.633 1.145zm-6.01 1.873 5.45-1.48-.513-1.932-5.45 1.479.513 1.933zm-5.106 8.613c-.525-4.234 1.658-7.678 5.106-8.613l-.513-1.933c-4.575 1.241-7.201 5.752-6.575 10.802l1.982-.256zm4.466 16.88c-1.856-4.461-3.858-12.523-4.468-16.895l-1.978.286c.629 4.506 2.668 12.739 4.602 17.387l1.844-.778zm8.727 5.08c-3.627.984-7.06-.865-8.72-5.064l-1.858.746c1.96 4.956 6.304 7.55 11.09 6.25l-.512-1.933zm5.45-1.48-5.45 1.48.513 1.933 5.45-1.48-.513-1.933zm13.64 6.055-12.962-5.998-.843 1.82 12.962 5.998.844-1.82zm4.64.686c-1.439.39-3.387-.075-4.62-.677l-.882 1.802c1.447.706 3.919 1.377 6.015.808l-.513-1.933zm.316-.083c-.102.028-.19.052-.289.076l.458 1.947c.13-.031.244-.062.344-.09l-.513-1.933zm4.752-6.954c-.09 3.566-2.067 6.226-4.752 6.954l.513 1.933c3.715-1.008 6.129-4.584 6.235-8.847l-1.996-.04zm-.468-4.356c.234 1.433.46 2.834.467 4.385l1.998-.018c-.008-1.732-.263-3.28-.494-4.7l-1.971.333zm-.005-.027.005.027 1.971-.332-.004-.027-1.972.332zm-.224-1.428.224 1.423 1.973-.322-.225-1.422-1.972.321zm-8.101-30.627c.833 2.086 2.696 8.57 4.446 15.184 1.75 6.613 3.34 13.18 3.652 15.425l1.978-.285c-.333-2.392-1.961-9.09-3.7-15.663-1.738-6.57-3.633-13.19-4.522-15.414l-1.854.753zm-.501-1.311.495 1.297 1.866-.724-.496-1.297-1.865.724zm9.96 3.114a.916.916 0 0 1 1.326-.102l1.314-1.514a2.911 2.911 0 0 0-4.175.343l1.536 1.273zm.136 1.435a1.056 1.056 0 0 1-.13-1.441l-1.546-1.261a3.06 3.06 0 0 0 .364 4.217l1.313-1.515zm5.286 8.968c-.96-3.626-2.818-6.818-5.285-8.968l-1.314 1.515c2.117 1.844 3.792 4.666 4.669 7.976l1.93-.523zm-.144 10.439c1.073-3.109 1.104-6.816.144-10.44l-1.93.524c.876 3.307.82 6.6-.101 9.268l1.887.648zm.599 1.314c-.503-.191-.783-.783-.599-1.313l-1.887-.65c-.534 1.543.249 3.26 1.773 3.837l.713-1.874zm.552.025a.909.909 0 0 1-.558-.028l-.7 1.88a2.9 2.9 0 0 0 1.771.082l-.513-1.934zm.638-.612a.945.945 0 0 1-.638.612l.513 1.934a2.957 2.957 0 0 0 2.011-1.895l-1.886-.65zm.187-11.663c1.083 4.088.998 8.233-.187 11.665l1.887.648c1.333-3.862 1.4-8.418.23-12.836l-1.93.523zm-5.928-10.008c2.723 2.373 4.845 5.92 5.928 10.008l1.93-.523c-1.17-4.417-3.48-8.33-6.544-11l-1.314 1.515zM107 49.177c-1.209-1.093-3.072-.988-4.111.32l1.56 1.243c.29-.365.819-.427 1.209-.073l1.342-1.49zm9.796 16.845c-1.794-6.771-5.259-12.764-9.798-16.847l-1.338 1.494c4.208 3.785 7.495 9.418 9.206 15.876l1.93-.523zm-.154 19.546c1.912-5.831 1.95-12.77.154-19.546l-1.93.523c1.712 6.462 1.651 13-.121 18.405l1.897.618zm-1.965 1.897c.94-.255 1.665-.98 1.965-1.898l-1.898-.615a.861.861 0 0 1-.58.58l.513 1.933zm-1.748-.099a2.786 2.786 0 0 0 1.748.1l-.513-1.934a.794.794 0 0 1-.504-.033l-.731 1.867zm-1.758-3.82c-.494 1.518.261 3.225 1.751 3.818l.744-1.862c-.481-.192-.775-.795-.596-1.343l-1.899-.613zm.059-16.016c1.505 5.678 1.464 11.367-.058 16.014l1.897.617c1.664-5.08 1.677-11.17.091-17.154l-1.93.523zm-7.968-13.837c3.616 3.255 6.464 8.161 7.968 13.837l1.93-.523c-1.585-5.981-4.608-11.25-8.56-14.807l-1.338 1.493zm-.376-4.191c-.995 1.265-.804 3.127.375 4.19l1.339-1.491c-.424-.383-.469-1.056-.148-1.465l-1.566-1.234z" fill="url(#c)" mask="url(#d)"/><defs><linearGradient id="b" x1="45.744" y1="62.275" x2="75.808" y2="89.754" gradientUnits="userSpaceOnUse"><stop stop-color="#FF759F"/><stop offset="1" stop-color="#FF196E"/></linearGradient><linearGradient id="c" x1="61.365" y1="58.466" x2="107.444" y2="94.409" gradientUnits="userSpaceOnUse"><stop stop-color="#fff" stop-opacity=".25"/><stop offset="1" stop-color="#fff" stop-opacity="0"/></linearGradient><filter id="a" x=".9" y=".9" width="144.2" height="144.2" filterUnits="userSpaceOnUse" color-interpolation-filters="sRGB"><feFlood flood-opacity="0" result="BackgroundImageFix"/><feBlend in="SourceGraphic" in2="BackgroundImageFix" result="shape"/><feGaussianBlur stdDeviation="19.55" result="effect1_foregroundBlur_297_8802"/></filter></defs></svg>